<?xml version="1.0" encoding="UTF-8" standalone="no"?>
<!DOCTYPE svg PUBLIC "-//W3C//DTD SVG 1.1//EN" "http://www.w3.org/Graphics/SVG/1.1/DTD/svg11.dtd">
<!-- Created with Vectornator (http://vectornator.io/) -->
<svg height="100%" stroke-miterlimit="10" style="fill-rule:nonzero;clip-rule:evenodd;stroke-linecap:round;stroke-linejoin:round;" version="1.1" viewBox="0 0 512 512" width="100%" xml:space="preserve" xmlns="http://www.w3.org/2000/svg" xmlns:vectornator="http://vectornator.io" xmlns:xlink="http://www.w3.org/1999/xlink">
<defs/>
<g id="Untitled" vectornator:layerName="Untitled">
<path d="M401.998 203.201C401.85 201.357 400.907 199.669 399.419 198.571C397.939 197.466 396.061 197.069 394.222 197.474C394.113 197.497 383.174 199.878 371.596 197.03C366.751 183.994 359.73 172.078 350.878 161.38L385.052 110.795C387.241 107.551 388.036 103.637 387.288 99.7941C386.54 95.9425 384.335 92.6209 381.078 90.4348L347.036 67.4985C340.343 62.9858 331.188 64.7519 326.638 71.4582L292.47 122.04C279.417 117.913 265.887 115.872 252.222 116.187C245.303 106.5 243.464 95.4757 243.441 95.3513C243.153 93.5307 242.078 91.9121 240.504 90.94C238.937 89.9757 237.029 89.726 235.245 90.2628L186.017 105.559C184.241 106.111 182.799 107.403 182.059 109.106C181.319 110.803 181.358 112.74 182.161 114.412C182.215 114.521 186.961 124.488 186.765 136.446C174.977 144.155 164.661 153.78 156.028 165.115C144.138 164.485 134.36 159.047 134.258 158.993C132.646 158.074 130.729 157.895 128.968 158.533C127.222 159.156 125.828 160.494 125.158 162.214L106.435 210.186C105.757 211.906 105.882 213.835 106.739 215.469C107.604 217.103 109.146 218.286 110.946 218.706C111.063 218.737 121.917 221.328 131.096 228.867C129.779 243.011 130.862 257.086 134.329 270.794C126.42 279.64 116.112 283.865 115.995 283.911C114.281 284.596 112.941 286.004 112.341 287.754C111.742 289.497 111.921 291.427 112.856 293.022L138.747 337.547C139.674 339.15 141.256 340.262 143.079 340.605C143.671 340.721 144.253 340.616 144.838 340.565L127.995 365.478C127.793 365.778 127.732 366.148 127.583 366.478C127.419 366.839 127.18 367.149 127.083 367.548C127.07 367.601 127.089 367.651 127.077 367.704C127.064 367.759 127.023 367.803 127.013 367.86L113.44 439.445C112.965 441.943 114.032 444.487 116.144 445.91C117.219 446.634 118.465 447 119.713 447C120.912 447 122.113 446.665 123.165 445.989L184.554 406.613C184.608 406.579 184.637 406.517 184.69 406.481C184.726 406.455 184.774 406.468 184.812 406.442C185.175 406.182 185.397 405.819 185.688 405.504C185.914 405.263 186.208 405.093 186.393 404.816L202.858 380.47C202.98 380.74 202.999 381.042 203.16 381.296C204.157 382.853 205.778 383.911 207.609 384.183L258.604 391.737C258.916 391.784 259.228 391.807 259.539 391.807C261.059 391.807 262.539 391.263 263.708 390.259C265.118 389.045 265.921 387.287 265.921 385.436C265.921 385.311 265.983 374.279 271.344 363.589C285.4 361.729 298.895 357.536 311.556 351.086C321.965 356.813 328.385 365.916 328.455 366.016C329.515 367.533 331.182 368.529 333.029 368.724C334.884 368.925 336.707 368.311 338.063 367.05L375.766 331.946C377.122 330.686 377.862 328.888 377.791 327.036C377.714 325.184 376.841 323.457 375.391 322.298C375.298 322.228 366.665 315.272 361.639 304.373C368.994 292.197 374.137 279.071 376.958 265.262C387.929 260.71 399.078 261.387 399.179 261.379C401.026 261.511 402.841 260.819 404.151 259.504C405.452 258.19 406.122 256.377 405.982 254.532L401.998 203.201ZM305.297 272.631C294.253 288.891 276.505 297.79 258.212 298.545L311.954 218.995C318.274 236.709 316.053 256.802 305.297 272.631ZM243.547 297.465C238.215 296.352 231.061 292.258 226.072 289.624C226.072 289.624 280.881 209.121 302.594 177.229C324.306 145.338 312.923 162.059 312.923 162.059L328.271 172.052L243.547 297.465ZM206.284 272.414L291.031 146.965L307.342 157.932L220.484 285.508C216.215 281.92 209.348 276.963 206.284 272.414ZM197.175 250.379C194.167 234.725 197.448 218.846 206.408 205.658C217.277 189.637 234.733 180.263 253.583 179.605L199.789 259.238C198.758 256.352 197.763 253.445 197.175 250.379ZM334.409 165.486L296.168 138.4L308.096 119.704L347.339 147.787L334.409 165.486ZM338.9 74.0641C338.9 74.0641 379.961 101.93 379.463 102.676L352.476 140.222L311.234 112.138C311.234 112.138 338.035 73.4805 338.9 74.0641ZM180.478 390.783C176.799 386.601 171.793 381.807 167.429 378.408L189.717 344.414C193.927 346.955 199.096 351.576 203.603 353.615C203.748 354.472 203.814 355.303 203.907 356.145L180.478 390.783ZM145.09 418.493L131.799 408.862L138.193 375.399C151.154 379.767 165.596 388.475 174.5 398.836L145.09 418.493ZM160.819 374.325C156.175 371.68 148.32 367.481 143.239 365.703L167.074 330.449C167.631 330.307 168.093 330.078 168.665 329.955C172.245 333.395 179.226 337.296 183.152 340.263L160.819 374.325ZM129.213 416.496L139.401 423.991L124.742 433.263L129.213 416.496ZM368.424 255.157C366.624 256.059 365.362 257.763 365.012 259.739C362.464 274.195 357.111 287.865 349.11 300.368C348.027 302.056 347.801 304.157 348.51 306.04C352.024 315.384 357.837 322.728 362.098 327.241L334.306 353.118C330.106 348.567 323.202 342.272 314.141 338.126C312.326 337.316 310.206 337.371 308.438 338.32C295.41 345.392 281.354 349.765 266.651 351.313C264.649 351.523 262.865 352.666 261.836 354.393C256.748 362.936 254.645 372.015 253.772 378.138L216.186 372.567C216.819 368.479 217.225 362.902 216.763 356.803C216.749 356.713 216.765 356.624 216.747 356.534C216.514 353.628 216.139 350.646 215.384 347.577C214.901 345.617 213.521 343.998 211.66 343.22C204.842 340.357 198.321 336.825 192.282 332.732C186.251 328.647 180.556 323.902 175.351 318.635C173.933 317.203 171.915 316.479 169.936 316.799C160.096 318.152 151.704 322.159 146.374 325.295L127.292 292.478C132.668 289.405 140.335 284.091 146.405 276.21C147.628 274.615 148.033 272.537 147.487 270.6C143.49 256.416 142.361 241.759 144.122 227.031C144.363 225.039 143.647 223.047 142.197 221.663C134.982 214.793 126.575 210.716 120.786 208.506L134.585 173.153C140.366 175.441 149.28 178.133 159.339 177.915C161.341 177.875 163.211 176.896 164.388 175.262C173.083 163.194 183.828 153.174 196.31 145.487C198.024 144.437 199.138 142.631 199.317 140.632C200.205 130.72 198.156 121.617 196.278 115.72L232.563 104.446C234.371 110.383 237.877 119.065 244.266 126.752C245.552 128.293 247.562 129.172 249.494 129.04C261.598 128.479 273.473 129.886 285 133.098L261.991 167.158C235.811 164.92 210.732 176.572 195.842 198.501C184.965 214.506 180.984 233.785 184.63 252.776C186.077 260.301 188.944 267.256 192.521 273.789C192.746 274.71 193.215 275.538 193.836 276.289C199.19 285.213 206.273 293.057 215.149 299.068C215.179 299.089 215.212 299.101 215.241 299.121C215.258 299.132 215.264 299.151 215.282 299.162C215.302 299.176 215.328 299.169 215.348 299.183C224.967 305.652 235.589 309.449 246.379 310.849C246.413 310.85 246.445 310.879 246.479 310.879C246.505 310.879 246.528 310.86 246.553 310.86C249.612 311.249 252.678 311.526 255.744 311.524C278.993 311.524 301.854 300.407 315.863 279.789C330.606 258.082 332.147 229.791 320.392 206.504L343.399 172.449C350.829 182.072 356.681 192.721 360.648 204.321C361.295 206.219 362.799 207.698 364.707 208.32C374.221 211.409 383.586 211.455 389.789 210.926L392.726 248.769C386.54 249.205 377.314 250.667 368.424 255.157Z" fill="#000000" fill-rule="nonzero" opacity="1" stroke="none" vectornator:layerName="path"/>
</g>
</svg>
